<mxfile host="app.diagrams.net" modified="2024-05-10T23:09:00.073Z" agent="Mozilla/5.0 (Windows NT 10.0; Win64; x64) AppleWebKit/537.36 (KHTML, like Gecko) Chrome/124.0.0.0 Safari/537.36" etag="taZooYtgo6CXbDele9f1" version="24.2.7" type="device">
  <diagram name="Page-1" id="14t1qRnMS6yAmU0yy7X9">
    <mxGraphModel dx="1434" dy="738" grid="1" gridSize="10" guides="1" tooltips="1" connect="1" arrows="1" fold="1" page="1" pageScale="1" pageWidth="850" pageHeight="1100" math="0" shadow="0">
      <root>
        <mxCell id="0" />
        <mxCell id="1" parent="0" />
        <mxCell id="Jrv7y6GAex2TZFwnVSJi-3" value="" style="edgeStyle=orthogonalEdgeStyle;rounded=0;orthogonalLoop=1;jettySize=auto;html=1;" parent="1" source="Jrv7y6GAex2TZFwnVSJi-1" target="Jrv7y6GAex2TZFwnVSJi-2" edge="1">
          <mxGeometry relative="1" as="geometry" />
        </mxCell>
        <mxCell id="Jrv7y6GAex2TZFwnVSJi-1" value="Ínicio" style="ellipse;whiteSpace=wrap;html=1;aspect=fixed;fillColor=#d5e8d4;strokeColor=#82b366;" parent="1" vertex="1">
          <mxGeometry x="40" y="40" width="40" height="40" as="geometry" />
        </mxCell>
        <mxCell id="Jrv7y6GAex2TZFwnVSJi-6" value="" style="edgeStyle=orthogonalEdgeStyle;rounded=0;orthogonalLoop=1;jettySize=auto;html=1;" parent="1" source="Jrv7y6GAex2TZFwnVSJi-2" target="Jrv7y6GAex2TZFwnVSJi-5" edge="1">
          <mxGeometry relative="1" as="geometry" />
        </mxCell>
        <mxCell id="Jrv7y6GAex2TZFwnVSJi-2" value="acessar pagina web" style="whiteSpace=wrap;html=1;" parent="1" vertex="1">
          <mxGeometry x="120" y="30" width="120" height="60" as="geometry" />
        </mxCell>
        <mxCell id="Jrv7y6GAex2TZFwnVSJi-4" value="Cliente" style="swimlane;horizontal=0;whiteSpace=wrap;html=1;" parent="1" vertex="1">
          <mxGeometry width="850" height="220" as="geometry" />
        </mxCell>
        <mxCell id="Jrv7y6GAex2TZFwnVSJi-11" value="" style="edgeStyle=orthogonalEdgeStyle;rounded=0;orthogonalLoop=1;jettySize=auto;html=1;" parent="Jrv7y6GAex2TZFwnVSJi-4" source="Jrv7y6GAex2TZFwnVSJi-5" target="Jrv7y6GAex2TZFwnVSJi-10" edge="1">
          <mxGeometry relative="1" as="geometry" />
        </mxCell>
        <mxCell id="Jrv7y6GAex2TZFwnVSJi-5" value="realizar cadastro" style="whiteSpace=wrap;html=1;" parent="Jrv7y6GAex2TZFwnVSJi-4" vertex="1">
          <mxGeometry x="320" y="30" width="120" height="60" as="geometry" />
        </mxCell>
        <mxCell id="Jrv7y6GAex2TZFwnVSJi-13" value="" style="edgeStyle=orthogonalEdgeStyle;rounded=0;orthogonalLoop=1;jettySize=auto;html=1;" parent="Jrv7y6GAex2TZFwnVSJi-4" source="Jrv7y6GAex2TZFwnVSJi-10" target="Jrv7y6GAex2TZFwnVSJi-12" edge="1">
          <mxGeometry relative="1" as="geometry" />
        </mxCell>
        <mxCell id="Jrv7y6GAex2TZFwnVSJi-10" value="Login" style="whiteSpace=wrap;html=1;" parent="Jrv7y6GAex2TZFwnVSJi-4" vertex="1">
          <mxGeometry x="520" y="30" width="120" height="60" as="geometry" />
        </mxCell>
        <mxCell id="Jrv7y6GAex2TZFwnVSJi-12" value="Envia foto para apoio de disgnóstico facial" style="whiteSpace=wrap;html=1;" parent="Jrv7y6GAex2TZFwnVSJi-4" vertex="1">
          <mxGeometry x="720" y="30" width="120" height="60" as="geometry" />
        </mxCell>
        <mxCell id="Jrv7y6GAex2TZFwnVSJi-16" value="Aplicação" style="swimlane;horizontal=0;whiteSpace=wrap;html=1;" parent="1" vertex="1">
          <mxGeometry y="220" width="850" height="220" as="geometry" />
        </mxCell>
        <mxCell id="Jrv7y6GAex2TZFwnVSJi-27" value="" style="edgeStyle=orthogonalEdgeStyle;rounded=0;orthogonalLoop=1;jettySize=auto;html=1;" parent="Jrv7y6GAex2TZFwnVSJi-16" source="Jrv7y6GAex2TZFwnVSJi-23" target="Jrv7y6GAex2TZFwnVSJi-26" edge="1">
          <mxGeometry relative="1" as="geometry" />
        </mxCell>
        <mxCell id="Jrv7y6GAex2TZFwnVSJi-23" value="Armazena foto" style="whiteSpace=wrap;html=1;" parent="Jrv7y6GAex2TZFwnVSJi-16" vertex="1">
          <mxGeometry x="80" y="20" width="120" height="60" as="geometry" />
        </mxCell>
        <mxCell id="Jrv7y6GAex2TZFwnVSJi-29" value="" style="edgeStyle=orthogonalEdgeStyle;rounded=0;orthogonalLoop=1;jettySize=auto;html=1;" parent="Jrv7y6GAex2TZFwnVSJi-16" source="Jrv7y6GAex2TZFwnVSJi-26" target="Jrv7y6GAex2TZFwnVSJi-28" edge="1">
          <mxGeometry relative="1" as="geometry" />
        </mxCell>
        <mxCell id="Jrv7y6GAex2TZFwnVSJi-26" value="Tratamento de imagem" style="whiteSpace=wrap;html=1;" parent="Jrv7y6GAex2TZFwnVSJi-16" vertex="1">
          <mxGeometry x="80" y="140" width="120" height="60" as="geometry" />
        </mxCell>
        <mxCell id="Jrv7y6GAex2TZFwnVSJi-31" value="" style="edgeStyle=orthogonalEdgeStyle;rounded=0;orthogonalLoop=1;jettySize=auto;html=1;" parent="Jrv7y6GAex2TZFwnVSJi-16" source="Jrv7y6GAex2TZFwnVSJi-28" target="Jrv7y6GAex2TZFwnVSJi-30" edge="1">
          <mxGeometry relative="1" as="geometry" />
        </mxCell>
        <mxCell id="Jrv7y6GAex2TZFwnVSJi-28" value="Análise de imagem" style="whiteSpace=wrap;html=1;" parent="Jrv7y6GAex2TZFwnVSJi-16" vertex="1">
          <mxGeometry x="280" y="140" width="120" height="60" as="geometry" />
        </mxCell>
        <mxCell id="Jrv7y6GAex2TZFwnVSJi-33" value="" style="edgeStyle=orthogonalEdgeStyle;rounded=0;orthogonalLoop=1;jettySize=auto;html=1;" parent="Jrv7y6GAex2TZFwnVSJi-16" source="Jrv7y6GAex2TZFwnVSJi-30" target="Jrv7y6GAex2TZFwnVSJi-32" edge="1">
          <mxGeometry relative="1" as="geometry" />
        </mxCell>
        <mxCell id="Jrv7y6GAex2TZFwnVSJi-30" value="Montar relatório" style="whiteSpace=wrap;html=1;" parent="Jrv7y6GAex2TZFwnVSJi-16" vertex="1">
          <mxGeometry x="280" y="20" width="120" height="60" as="geometry" />
        </mxCell>
        <mxCell id="Jrv7y6GAex2TZFwnVSJi-35" value="" style="edgeStyle=orthogonalEdgeStyle;rounded=0;orthogonalLoop=1;jettySize=auto;html=1;" parent="Jrv7y6GAex2TZFwnVSJi-16" source="Jrv7y6GAex2TZFwnVSJi-32" target="Jrv7y6GAex2TZFwnVSJi-34" edge="1">
          <mxGeometry relative="1" as="geometry" />
        </mxCell>
        <mxCell id="Jrv7y6GAex2TZFwnVSJi-32" value="Retornar relatório de apoio para usuário" style="whiteSpace=wrap;html=1;" parent="Jrv7y6GAex2TZFwnVSJi-16" vertex="1">
          <mxGeometry x="480" y="20" width="120" height="60" as="geometry" />
        </mxCell>
        <mxCell id="Jrv7y6GAex2TZFwnVSJi-34" value="" style="ellipse;whiteSpace=wrap;html=1;fillColor=#f8cecc;strokeColor=#b85450;" parent="Jrv7y6GAex2TZFwnVSJi-16" vertex="1">
          <mxGeometry x="680" y="30" width="40" height="40" as="geometry" />
        </mxCell>
        <mxCell id="Jrv7y6GAex2TZFwnVSJi-25" style="edgeStyle=orthogonalEdgeStyle;rounded=0;orthogonalLoop=1;jettySize=auto;html=1;entryX=0.5;entryY=0;entryDx=0;entryDy=0;" parent="1" source="Jrv7y6GAex2TZFwnVSJi-12" target="Jrv7y6GAex2TZFwnVSJi-23" edge="1">
          <mxGeometry relative="1" as="geometry">
            <Array as="points">
              <mxPoint x="780" y="160" />
              <mxPoint x="140" y="160" />
            </Array>
          </mxGeometry>
        </mxCell>
      </root>
    </mxGraphModel>
  </diagram>
</mxfile>
